<mxfile host="65bd71144e">
    <diagram id="mZEBOaH3Qbh8OWSPwJVB" name="Page-1">
        <mxGraphModel dx="2587" dy="2244" grid="1" gridSize="10" guides="1" tooltips="1" connect="1" arrows="1" fold="1" page="1" pageScale="1" pageWidth="827" pageHeight="1169" background="#ffffff" math="0" shadow="0">
            <root>
                <mxCell id="0"/>
                <mxCell id="1" parent="0"/>
                <mxCell id="112" style="edgeStyle=orthogonalEdgeStyle;curved=1;rounded=0;orthogonalLoop=1;jettySize=auto;html=1;exitX=0.25;exitY=0;exitDx=0;exitDy=0;entryX=0.25;entryY=1;entryDx=0;entryDy=0;strokeColor=#000000;" edge="1" parent="1" source="91" target="111">
                    <mxGeometry relative="1" as="geometry"/>
                </mxCell>
                <mxCell id="113" style="edgeStyle=orthogonalEdgeStyle;curved=1;rounded=0;orthogonalLoop=1;jettySize=auto;html=1;exitX=0.75;exitY=0;exitDx=0;exitDy=0;entryX=0.75;entryY=1;entryDx=0;entryDy=0;strokeColor=#000000;" edge="1" parent="1" source="91" target="111">
                    <mxGeometry relative="1" as="geometry"/>
                </mxCell>
                <mxCell id="91" value="" style="rounded=0;whiteSpace=wrap;html=1;strokeColor=#000000;strokeWidth=2;fillColor=#FFFFFF;dashed=1;" vertex="1" parent="1">
                    <mxGeometry x="-90" y="30" width="970" height="690" as="geometry"/>
                </mxCell>
                <mxCell id="2" value="&lt;font color=&quot;#000000&quot;&gt;&lt;b&gt;实体&lt;/b&gt;&lt;/font&gt;" style="rounded=0;whiteSpace=wrap;html=1;fillColor=#FFFFFF;strokeWidth=2;strokeColor=#000000;" vertex="1" parent="1">
                    <mxGeometry x="284" y="-405" width="100" height="50" as="geometry"/>
                </mxCell>
                <mxCell id="3" value="&lt;font color=&quot;#000000&quot;&gt;&lt;b&gt;订阅&lt;/b&gt;&lt;/font&gt;" style="rounded=0;whiteSpace=wrap;html=1;fillColor=#FFFFFF;strokeWidth=2;strokeColor=#000000;" vertex="1" parent="1">
                    <mxGeometry x="544" y="-595" width="100" height="50" as="geometry"/>
                </mxCell>
                <mxCell id="7" value="&lt;font color=&quot;#000000&quot;&gt;&lt;b&gt;模型&lt;/b&gt;&lt;/font&gt;" style="rounded=0;whiteSpace=wrap;html=1;fillColor=#FFFFFF;strokeWidth=2;strokeColor=#000000;" vertex="1" parent="1">
                    <mxGeometry x="184" y="-485" width="100" height="50" as="geometry"/>
                </mxCell>
                <mxCell id="24" value="&lt;font color=&quot;#000000&quot;&gt;&lt;b&gt;Core&lt;/b&gt;&lt;/font&gt;" style="ellipse;whiteSpace=wrap;html=1;aspect=fixed;strokeColor=#000000;strokeWidth=2;fillColor=#FFFFFF;" vertex="1" parent="1">
                    <mxGeometry x="339" y="-595" width="150" height="150" as="geometry"/>
                </mxCell>
                <mxCell id="25" value="&lt;font color=&quot;#000000&quot;&gt;&lt;b&gt;映射&lt;/b&gt;&lt;/font&gt;" style="rounded=0;whiteSpace=wrap;html=1;fillColor=#FFFFFF;strokeWidth=2;strokeColor=#000000;" vertex="1" parent="1">
                    <mxGeometry x="444" y="-415" width="100" height="50" as="geometry"/>
                </mxCell>
                <mxCell id="26" value="&lt;font color=&quot;#000000&quot;&gt;&lt;b&gt;关系&lt;/b&gt;&lt;/font&gt;" style="rounded=0;whiteSpace=wrap;html=1;fillColor=#FFFFFF;strokeWidth=2;strokeColor=#000000;" vertex="1" parent="1">
                    <mxGeometry x="544" y="-515" width="100" height="50" as="geometry"/>
                </mxCell>
                <mxCell id="27" value="&lt;font color=&quot;#000000&quot;&gt;&lt;b&gt;Core&lt;/b&gt;&lt;/font&gt;" style="rounded=0;whiteSpace=wrap;html=1;fillColor=#FFFFFF;strokeWidth=2;strokeColor=#000000;" vertex="1" parent="1">
                    <mxGeometry x="110" y="-980" width="240" height="50" as="geometry"/>
                </mxCell>
                <mxCell id="36" style="edgeStyle=orthogonalEdgeStyle;rounded=0;orthogonalLoop=1;jettySize=auto;html=1;exitX=1;exitY=1;exitDx=0;exitDy=0;entryX=0.5;entryY=1;entryDx=0;entryDy=0;strokeColor=#000000;" edge="1" parent="1" source="28" target="34">
                    <mxGeometry relative="1" as="geometry">
                        <Array as="points">
                            <mxPoint x="550" y="-910"/>
                        </Array>
                    </mxGeometry>
                </mxCell>
                <mxCell id="28" value="&lt;font color=&quot;#000000&quot;&gt;&lt;b&gt;Storege&lt;/b&gt;&lt;/font&gt;" style="rounded=0;whiteSpace=wrap;html=1;fillColor=#FFFFFF;strokeWidth=2;strokeColor=#000000;" vertex="1" parent="1">
                    <mxGeometry x="110" y="-930" width="240" height="20" as="geometry"/>
                </mxCell>
                <mxCell id="29" value="&lt;font color=&quot;#000000&quot;&gt;&lt;b&gt;APIs&lt;/b&gt;&lt;/font&gt;" style="rounded=0;whiteSpace=wrap;html=1;fillColor=#FFFFFF;strokeWidth=2;strokeColor=#000000;" vertex="1" parent="1">
                    <mxGeometry x="110" y="-1000" width="240" height="20" as="geometry"/>
                </mxCell>
                <mxCell id="34" value="&lt;font color=&quot;#000000&quot;&gt;&lt;b&gt;Search&lt;/b&gt;&lt;/font&gt;" style="rounded=0;whiteSpace=wrap;html=1;fillColor=#FFFFFF;strokeWidth=2;strokeColor=#000000;" vertex="1" parent="1">
                    <mxGeometry x="430" y="-980" width="240" height="50" as="geometry"/>
                </mxCell>
                <mxCell id="35" value="&lt;font color=&quot;#000000&quot;&gt;&lt;b&gt;APIs&lt;/b&gt;&lt;/font&gt;" style="rounded=0;whiteSpace=wrap;html=1;fillColor=#FFFFFF;strokeWidth=2;strokeColor=#000000;" vertex="1" parent="1">
                    <mxGeometry x="430" y="-1000" width="240" height="20" as="geometry"/>
                </mxCell>
                <mxCell id="37" value="&lt;b&gt;&lt;font color=&quot;#000000&quot; style=&quot;font-size: 10px&quot;&gt;Query&lt;/font&gt;&lt;/b&gt;" style="text;html=1;align=center;verticalAlign=middle;resizable=0;points=[];autosize=1;strokeColor=none;" vertex="1" parent="1">
                    <mxGeometry x="389" y="-930" width="40" height="20" as="geometry"/>
                </mxCell>
                <mxCell id="38" value="&lt;font color=&quot;#000000&quot;&gt;&lt;b&gt;Inbox&lt;/b&gt;&lt;/font&gt;" style="rounded=0;whiteSpace=wrap;html=1;fillColor=#FFFFFF;strokeWidth=2;strokeColor=#000000;" vertex="1" parent="1">
                    <mxGeometry x="194" y="-600" width="100" height="50" as="geometry"/>
                </mxCell>
                <mxCell id="39" value="&lt;font color=&quot;#000000&quot;&gt;&lt;b&gt;Runtime&lt;/b&gt;&lt;/font&gt;" style="rounded=0;whiteSpace=wrap;html=1;fillColor=#FFFFFF;strokeWidth=2;strokeColor=#000000;" vertex="1" parent="1">
                    <mxGeometry x="264" y="-680" width="100" height="50" as="geometry"/>
                </mxCell>
                <mxCell id="40" value="&lt;font color=&quot;#000000&quot;&gt;&lt;b&gt;Channel&lt;/b&gt;&lt;/font&gt;" style="rounded=0;whiteSpace=wrap;html=1;fillColor=#FFFFFF;strokeWidth=2;strokeColor=#000000;" vertex="1" parent="1">
                    <mxGeometry x="396" y="-720" width="100" height="50" as="geometry"/>
                </mxCell>
                <mxCell id="43" value="&lt;font color=&quot;#000000&quot;&gt;&lt;b&gt;实体管理&lt;/b&gt;&lt;/font&gt;" style="rounded=0;whiteSpace=wrap;html=1;fillColor=#FFFFFF;strokeWidth=2;strokeColor=#000000;" vertex="1" parent="1">
                    <mxGeometry x="570" y="-445" width="100" height="50" as="geometry"/>
                </mxCell>
                <mxCell id="52" style="edgeStyle=orthogonalEdgeStyle;curved=1;rounded=0;orthogonalLoop=1;jettySize=auto;html=1;exitX=0.5;exitY=1;exitDx=0;exitDy=0;entryX=0.5;entryY=0;entryDx=0;entryDy=0;strokeColor=#000000;" edge="1" parent="1" source="50" target="44">
                    <mxGeometry relative="1" as="geometry"/>
                </mxCell>
                <mxCell id="50" value="&lt;font color=&quot;#000000&quot;&gt;约束&lt;/font&gt;" style="ellipse;whiteSpace=wrap;html=1;aspect=fixed;strokeColor=#000000;strokeWidth=2;fillColor=#FFFFFF;" vertex="1" parent="1">
                    <mxGeometry x="396" y="220" width="30" height="30" as="geometry"/>
                </mxCell>
                <mxCell id="133" style="edgeStyle=orthogonalEdgeStyle;curved=1;rounded=0;orthogonalLoop=1;jettySize=auto;html=1;exitX=1;exitY=0.5;exitDx=0;exitDy=0;entryX=0.5;entryY=1;entryDx=0;entryDy=0;strokeColor=#000000;" edge="1" parent="1" source="48" target="132">
                    <mxGeometry relative="1" as="geometry"/>
                </mxCell>
                <mxCell id="48" value="&lt;b&gt;&lt;font color=&quot;#000000&quot;&gt;映射&lt;/font&gt;&lt;/b&gt;" style="rounded=0;whiteSpace=wrap;html=1;fillColor=#FFFFFF;strokeWidth=2;strokeColor=#000000;" vertex="1" parent="1">
                    <mxGeometry x="437" y="500" width="86" height="40" as="geometry"/>
                </mxCell>
                <mxCell id="58" style="edgeStyle=orthogonalEdgeStyle;curved=1;rounded=0;orthogonalLoop=1;jettySize=auto;html=1;exitX=0;exitY=0.5;exitDx=0;exitDy=0;entryX=1;entryY=0.5;entryDx=0;entryDy=0;strokeColor=#000000;" edge="1" parent="1" source="56" target="57">
                    <mxGeometry relative="1" as="geometry"/>
                </mxCell>
                <mxCell id="56" value="&lt;font color=&quot;#000000&quot;&gt;&lt;b&gt;关系&lt;/b&gt;&lt;/font&gt;" style="rounded=0;whiteSpace=wrap;html=1;fillColor=#FFFFFF;strokeWidth=2;strokeColor=#000000;" vertex="1" parent="1">
                    <mxGeometry x="689" y="330" width="100" height="50" as="geometry"/>
                </mxCell>
                <mxCell id="68" style="edgeStyle=orthogonalEdgeStyle;curved=1;rounded=0;orthogonalLoop=1;jettySize=auto;html=1;exitX=0;exitY=0.5;exitDx=0;exitDy=0;entryX=1;entryY=0.5;entryDx=0;entryDy=0;strokeColor=#000000;" edge="1" parent="1" source="57" target="72">
                    <mxGeometry relative="1" as="geometry">
                        <mxPoint x="549" y="405" as="targetPoint"/>
                    </mxGeometry>
                </mxCell>
                <mxCell id="57" value="&lt;font color=&quot;#000000&quot;&gt;连接&lt;/font&gt;" style="ellipse;whiteSpace=wrap;html=1;aspect=fixed;strokeColor=#000000;strokeWidth=2;fillColor=#FFFFFF;" vertex="1" parent="1">
                    <mxGeometry x="603" y="340" width="30" height="30" as="geometry"/>
                </mxCell>
                <mxCell id="61" value="" style="group" vertex="1" connectable="0" parent="1">
                    <mxGeometry x="313" y="290" width="205" height="90" as="geometry"/>
                </mxCell>
                <mxCell id="44" value="" style="rounded=0;whiteSpace=wrap;html=1;fillColor=#FFFFFF;strokeWidth=2;strokeColor=#000000;" vertex="1" parent="61">
                    <mxGeometry width="196" height="90" as="geometry"/>
                </mxCell>
                <mxCell id="69" value="" style="group" vertex="1" connectable="0" parent="1">
                    <mxGeometry x="323" y="300" width="205" height="90" as="geometry"/>
                </mxCell>
                <mxCell id="70" value="" style="rounded=0;whiteSpace=wrap;html=1;fillColor=#FFFFFF;strokeWidth=2;strokeColor=#000000;" vertex="1" parent="69">
                    <mxGeometry width="196" height="90" as="geometry"/>
                </mxCell>
                <mxCell id="71" value="" style="group" vertex="1" connectable="0" parent="1">
                    <mxGeometry x="333" y="310" width="210" height="90" as="geometry"/>
                </mxCell>
                <mxCell id="72" value="&lt;b&gt;&lt;font color=&quot;#000000&quot;&gt;Actor&lt;/font&gt;&lt;/b&gt;" style="rounded=0;whiteSpace=wrap;html=1;fillColor=#FFFFFF;strokeWidth=2;strokeColor=#000000;" vertex="1" parent="71">
                    <mxGeometry width="196" height="90" as="geometry"/>
                </mxCell>
                <mxCell id="73" value="&lt;font color=&quot;#000000&quot;&gt;&lt;b&gt;Runtime&lt;/b&gt;&lt;/font&gt;" style="text;html=1;align=center;verticalAlign=middle;resizable=0;points=[];autosize=1;strokeColor=none;" vertex="1" parent="71">
                    <mxGeometry x="138" width="60" height="20" as="geometry"/>
                </mxCell>
                <mxCell id="141" style="edgeStyle=orthogonalEdgeStyle;curved=1;rounded=0;orthogonalLoop=1;jettySize=auto;html=1;exitX=0;exitY=0.5;exitDx=0;exitDy=0;entryX=1;entryY=0.5;entryDx=0;entryDy=0;strokeColor=#000000;" edge="1" parent="1" source="74" target="140">
                    <mxGeometry relative="1" as="geometry"/>
                </mxCell>
                <mxCell id="74" value="&lt;font color=&quot;#000000&quot;&gt;&lt;b&gt;订阅&lt;/b&gt;&lt;/font&gt;" style="rounded=0;whiteSpace=wrap;html=1;fillColor=#FFFFFF;strokeWidth=2;strokeColor=#000000;" vertex="1" parent="1">
                    <mxGeometry x="337.5" y="500" width="89" height="40" as="geometry"/>
                </mxCell>
                <mxCell id="121" style="edgeStyle=orthogonalEdgeStyle;curved=1;rounded=0;orthogonalLoop=1;jettySize=auto;html=1;exitX=0.5;exitY=1;exitDx=0;exitDy=0;entryX=0.5;entryY=0;entryDx=0;entryDy=0;strokeColor=#000000;" edge="1" parent="1" source="75" target="74">
                    <mxGeometry relative="1" as="geometry"/>
                </mxCell>
                <mxCell id="75" value="&lt;font color=&quot;#000000&quot; style=&quot;font-size: 10px&quot;&gt;规则&lt;br&gt;触发&lt;/font&gt;" style="ellipse;whiteSpace=wrap;html=1;aspect=fixed;strokeColor=#000000;strokeWidth=2;fillColor=#FFFFFF;" vertex="1" parent="1">
                    <mxGeometry x="362" y="430" width="40" height="40" as="geometry"/>
                </mxCell>
                <mxCell id="84" style="edgeStyle=orthogonalEdgeStyle;curved=1;rounded=0;orthogonalLoop=1;jettySize=auto;html=1;exitX=0.5;exitY=1;exitDx=0;exitDy=0;entryX=1.017;entryY=0.7;entryDx=0;entryDy=0;entryPerimeter=0;strokeColor=#000000;" edge="1" parent="1" source="81" target="73">
                    <mxGeometry relative="1" as="geometry"/>
                </mxCell>
                <mxCell id="81" value="&lt;font color=&quot;#000000&quot;&gt;&lt;span style=&quot;font-size: 10px&quot;&gt;启动&lt;/span&gt;&lt;/font&gt;" style="ellipse;whiteSpace=wrap;html=1;aspect=fixed;strokeColor=#000000;strokeWidth=2;fillColor=#FFFFFF;" vertex="1" parent="1">
                    <mxGeometry x="550" y="220" width="40" height="40" as="geometry"/>
                </mxCell>
                <mxCell id="126" style="edgeStyle=orthogonalEdgeStyle;curved=1;rounded=0;orthogonalLoop=1;jettySize=auto;html=1;exitX=1;exitY=0.5;exitDx=0;exitDy=0;entryX=0;entryY=0.5;entryDx=0;entryDy=0;strokeColor=#000000;" edge="1" parent="1" source="89" target="128">
                    <mxGeometry relative="1" as="geometry">
                        <mxPoint x="250" y="335" as="targetPoint"/>
                    </mxGeometry>
                </mxCell>
                <mxCell id="89" value="&lt;font color=&quot;#000000&quot;&gt;&lt;b&gt;Inbox&lt;/b&gt;&lt;/font&gt;" style="rounded=0;whiteSpace=wrap;html=1;fillColor=#FFFFFF;strokeWidth=2;strokeColor=#000000;" vertex="1" parent="1">
                    <mxGeometry x="120" y="315" width="90" height="40" as="geometry"/>
                </mxCell>
                <mxCell id="137" style="edgeStyle=orthogonalEdgeStyle;curved=1;rounded=0;orthogonalLoop=1;jettySize=auto;html=1;exitX=1;exitY=0.5;exitDx=0;exitDy=0;entryX=0;entryY=0.5;entryDx=0;entryDy=0;strokeColor=#000000;" edge="1" parent="1" source="92" target="135">
                    <mxGeometry relative="1" as="geometry"/>
                </mxCell>
                <mxCell id="160" style="edgeStyle=orthogonalEdgeStyle;curved=1;rounded=0;orthogonalLoop=1;jettySize=auto;html=1;exitX=0;exitY=0.5;exitDx=0;exitDy=0;entryX=1;entryY=0.5;entryDx=0;entryDy=0;strokeColor=#000000;" edge="1" parent="1" source="92" target="157">
                    <mxGeometry relative="1" as="geometry"/>
                </mxCell>
                <mxCell id="92" value="&lt;font color=&quot;#000000&quot;&gt;&lt;b&gt;Channel&lt;/b&gt;&lt;/font&gt;" style="rounded=1;whiteSpace=wrap;html=1;strokeColor=#000000;strokeWidth=2;fillColor=#FFFFFF;" vertex="1" parent="1">
                    <mxGeometry x="-290" y="305" width="150" height="60" as="geometry"/>
                </mxCell>
                <mxCell id="97" style="edgeStyle=orthogonalEdgeStyle;curved=1;rounded=0;orthogonalLoop=1;jettySize=auto;html=1;exitX=1;exitY=0.5;exitDx=0;exitDy=0;strokeColor=#000000;" edge="1" parent="1" source="94" target="89">
                    <mxGeometry relative="1" as="geometry"/>
                </mxCell>
                <mxCell id="94" value="&lt;font color=&quot;#000000&quot;&gt;消费&lt;/font&gt;" style="ellipse;whiteSpace=wrap;html=1;aspect=fixed;strokeColor=#000000;strokeWidth=2;fillColor=#FFFFFF;" vertex="1" parent="1">
                    <mxGeometry x="67" y="320" width="30" height="30" as="geometry"/>
                </mxCell>
                <mxCell id="101" style="edgeStyle=orthogonalEdgeStyle;curved=1;rounded=0;orthogonalLoop=1;jettySize=auto;html=1;exitX=0.5;exitY=1;exitDx=0;exitDy=0;entryX=0.5;entryY=0;entryDx=0;entryDy=0;strokeColor=#000000;" edge="1" parent="1" source="98" target="100">
                    <mxGeometry relative="1" as="geometry"/>
                </mxCell>
                <mxCell id="105" style="edgeStyle=orthogonalEdgeStyle;curved=1;rounded=0;orthogonalLoop=1;jettySize=auto;html=1;exitX=1;exitY=0.5;exitDx=0;exitDy=0;entryX=0;entryY=0.5;entryDx=0;entryDy=0;strokeColor=#000000;" edge="1" parent="1" source="98" target="104">
                    <mxGeometry relative="1" as="geometry"/>
                </mxCell>
                <mxCell id="98" value="&lt;font color=&quot;#000000&quot;&gt;&lt;b&gt;实体管理&lt;/b&gt;&lt;/font&gt;" style="rounded=0;whiteSpace=wrap;html=1;fillColor=#FFFFFF;strokeWidth=2;strokeColor=#000000;" vertex="1" parent="1">
                    <mxGeometry x="140" y="120" width="100" height="50" as="geometry"/>
                </mxCell>
                <mxCell id="102" style="edgeStyle=orthogonalEdgeStyle;curved=1;rounded=0;orthogonalLoop=1;jettySize=auto;html=1;exitX=0.5;exitY=1;exitDx=0;exitDy=0;entryX=0;entryY=0.178;entryDx=0;entryDy=0;entryPerimeter=0;strokeColor=#000000;" edge="1" parent="1" source="100" target="44">
                    <mxGeometry relative="1" as="geometry"/>
                </mxCell>
                <mxCell id="100" value="&lt;font color=&quot;#000000&quot;&gt;&lt;span style=&quot;font-size: 10px&quot;&gt;调度&lt;/span&gt;&lt;/font&gt;" style="ellipse;whiteSpace=wrap;html=1;aspect=fixed;strokeColor=#000000;strokeWidth=2;fillColor=#FFFFFF;" vertex="1" parent="1">
                    <mxGeometry x="170" y="210" width="40" height="40" as="geometry"/>
                </mxCell>
                <mxCell id="103" value="" style="rounded=0;whiteSpace=wrap;html=1;strokeColor=#000000;strokeWidth=2;fillColor=#FFFFFF;" vertex="1" parent="1">
                    <mxGeometry x="339" y="95" width="451" height="95" as="geometry"/>
                </mxCell>
                <mxCell id="49" value="&lt;font color=&quot;#000000&quot;&gt;&lt;b&gt;模型实体&lt;/b&gt;&lt;/font&gt;" style="rounded=0;whiteSpace=wrap;html=1;fillColor=#FFFFFF;strokeWidth=2;strokeColor=#000000;" vertex="1" parent="1">
                    <mxGeometry x="361" y="120" width="100" height="50" as="geometry"/>
                </mxCell>
                <mxCell id="79" value="&lt;font color=&quot;#000000&quot;&gt;&lt;b&gt;设备实体&lt;/b&gt;&lt;/font&gt;" style="rounded=0;whiteSpace=wrap;html=1;fillColor=#FFFFFF;strokeWidth=2;strokeColor=#000000;" vertex="1" parent="1">
                    <mxGeometry x="520" y="120" width="100" height="50" as="geometry"/>
                </mxCell>
                <mxCell id="51" style="edgeStyle=orthogonalEdgeStyle;curved=1;rounded=0;orthogonalLoop=1;jettySize=auto;html=1;exitX=0.5;exitY=1;exitDx=0;exitDy=0;entryX=0.5;entryY=0;entryDx=0;entryDy=0;strokeColor=#000000;" edge="1" parent="1" source="49" target="50">
                    <mxGeometry relative="1" as="geometry"/>
                </mxCell>
                <mxCell id="83" style="edgeStyle=orthogonalEdgeStyle;curved=1;rounded=0;orthogonalLoop=1;jettySize=auto;html=1;entryX=0.5;entryY=0;entryDx=0;entryDy=0;strokeColor=#000000;" edge="1" parent="1" target="81">
                    <mxGeometry relative="1" as="geometry">
                        <mxPoint x="570" y="190" as="sourcePoint"/>
                    </mxGeometry>
                </mxCell>
                <mxCell id="106" style="edgeStyle=orthogonalEdgeStyle;curved=1;rounded=0;orthogonalLoop=1;jettySize=auto;html=1;exitX=1;exitY=0.5;exitDx=0;exitDy=0;entryX=0;entryY=0.5;entryDx=0;entryDy=0;strokeColor=#000000;" edge="1" parent="1" source="104" target="49">
                    <mxGeometry relative="1" as="geometry"/>
                </mxCell>
                <mxCell id="104" value="&lt;font color=&quot;#000000&quot;&gt;管理&lt;/font&gt;" style="ellipse;whiteSpace=wrap;html=1;aspect=fixed;strokeColor=#000000;strokeWidth=2;fillColor=#FFFFFF;" vertex="1" parent="1">
                    <mxGeometry x="280" y="130" width="30" height="30" as="geometry"/>
                </mxCell>
                <mxCell id="108" value="&lt;font color=&quot;#000000&quot;&gt;&lt;b&gt;其他实体&lt;/b&gt;&lt;/font&gt;" style="rounded=0;whiteSpace=wrap;html=1;fillColor=#FFFFFF;strokeWidth=2;strokeColor=#000000;" vertex="1" parent="1">
                    <mxGeometry x="670" y="120" width="100" height="50" as="geometry"/>
                </mxCell>
                <mxCell id="110" value="&lt;b style=&quot;color: rgb(0 , 0 , 0)&quot;&gt;实体&lt;/b&gt;" style="text;html=1;align=center;verticalAlign=middle;resizable=0;points=[];autosize=1;strokeColor=none;" vertex="1" parent="1">
                    <mxGeometry x="750" y="95" width="40" height="20" as="geometry"/>
                </mxCell>
                <mxCell id="111" value="&lt;font color=&quot;#000000&quot; style=&quot;font-size: 14px&quot;&gt;&lt;b&gt;APIs&lt;/b&gt;&lt;/font&gt;" style="rounded=0;whiteSpace=wrap;html=1;strokeColor=#000000;strokeWidth=2;fillColor=#FFFFFF;" vertex="1" parent="1">
                    <mxGeometry x="-90" y="-30" width="970" height="30" as="geometry"/>
                </mxCell>
                <mxCell id="114" value="&lt;font color=&quot;#000000&quot;&gt;&lt;b&gt;Storege&lt;/b&gt;&lt;/font&gt;" style="rounded=0;whiteSpace=wrap;html=1;fillColor=#FFFFFF;strokeWidth=2;strokeColor=#000000;" vertex="1" parent="1">
                    <mxGeometry x="496" y="-660" width="100" height="50" as="geometry"/>
                </mxCell>
                <mxCell id="129" style="edgeStyle=orthogonalEdgeStyle;curved=1;rounded=0;orthogonalLoop=1;jettySize=auto;html=1;exitX=0.25;exitY=1;exitDx=0;exitDy=0;strokeColor=#000000;" edge="1" parent="1" source="115">
                    <mxGeometry relative="1" as="geometry">
                        <mxPoint x="359" y="810" as="targetPoint"/>
                    </mxGeometry>
                </mxCell>
                <mxCell id="131" style="edgeStyle=orthogonalEdgeStyle;curved=1;rounded=0;orthogonalLoop=1;jettySize=auto;html=1;exitX=0.75;exitY=1;exitDx=0;exitDy=0;strokeColor=#000000;" edge="1" parent="1" source="115">
                    <mxGeometry relative="1" as="geometry">
                        <mxPoint x="506" y="810" as="targetPoint"/>
                    </mxGeometry>
                </mxCell>
                <mxCell id="115" value="&lt;font color=&quot;#000000&quot;&gt;&lt;b&gt;Storege&lt;/b&gt;&lt;/font&gt;" style="rounded=0;whiteSpace=wrap;html=1;fillColor=#FFFFFF;strokeWidth=2;strokeColor=#000000;" vertex="1" parent="1">
                    <mxGeometry x="285" y="650" width="294" height="50" as="geometry"/>
                </mxCell>
                <mxCell id="122" style="edgeStyle=orthogonalEdgeStyle;curved=1;rounded=0;orthogonalLoop=1;jettySize=auto;html=1;exitX=0.5;exitY=1;exitDx=0;exitDy=0;strokeColor=#000000;" edge="1" parent="1" source="117" target="48">
                    <mxGeometry relative="1" as="geometry"/>
                </mxCell>
                <mxCell id="117" value="&lt;font color=&quot;#000000&quot; style=&quot;font-size: 10px&quot;&gt;规则&lt;br&gt;触发&lt;/font&gt;" style="ellipse;whiteSpace=wrap;html=1;aspect=fixed;strokeColor=#000000;strokeWidth=2;fillColor=#FFFFFF;" vertex="1" parent="1">
                    <mxGeometry x="460" y="430" width="40" height="40" as="geometry"/>
                </mxCell>
                <mxCell id="124" style="edgeStyle=orthogonalEdgeStyle;curved=1;rounded=0;orthogonalLoop=1;jettySize=auto;html=1;exitX=0.5;exitY=1;exitDx=0;exitDy=0;strokeColor=#000000;" edge="1" parent="1" source="118" target="115">
                    <mxGeometry relative="1" as="geometry"/>
                </mxCell>
                <mxCell id="118" value="&lt;font color=&quot;#000000&quot;&gt;&lt;span style=&quot;font-size: 10px&quot;&gt;条件&lt;br&gt;触发&lt;/span&gt;&lt;/font&gt;" style="ellipse;whiteSpace=wrap;html=1;aspect=fixed;strokeColor=#000000;strokeWidth=2;fillColor=#FFFFFF;" vertex="1" parent="1">
                    <mxGeometry x="411.5" y="430" width="40" height="40" as="geometry"/>
                </mxCell>
                <mxCell id="119" style="edgeStyle=orthogonalEdgeStyle;curved=1;rounded=0;orthogonalLoop=1;jettySize=auto;html=1;exitX=0.25;exitY=1;exitDx=0;exitDy=0;entryX=0.5;entryY=0;entryDx=0;entryDy=0;strokeColor=#000000;" edge="1" parent="1" source="72" target="75">
                    <mxGeometry relative="1" as="geometry"/>
                </mxCell>
                <mxCell id="120" style="edgeStyle=orthogonalEdgeStyle;curved=1;rounded=0;orthogonalLoop=1;jettySize=auto;html=1;exitX=0.75;exitY=1;exitDx=0;exitDy=0;entryX=0.5;entryY=0;entryDx=0;entryDy=0;strokeColor=#000000;" edge="1" parent="1" source="72" target="117">
                    <mxGeometry relative="1" as="geometry"/>
                </mxCell>
                <mxCell id="123" style="edgeStyle=orthogonalEdgeStyle;curved=1;rounded=0;orthogonalLoop=1;jettySize=auto;html=1;exitX=0.5;exitY=1;exitDx=0;exitDy=0;entryX=0.5;entryY=0;entryDx=0;entryDy=0;strokeColor=#000000;" edge="1" parent="1" source="72" target="118">
                    <mxGeometry relative="1" as="geometry"/>
                </mxCell>
                <mxCell id="127" style="edgeStyle=orthogonalEdgeStyle;curved=1;rounded=0;orthogonalLoop=1;jettySize=auto;html=1;exitX=1;exitY=0.5;exitDx=0;exitDy=0;strokeColor=#000000;" edge="1" parent="1" target="44">
                    <mxGeometry relative="1" as="geometry">
                        <mxPoint x="280" y="335" as="sourcePoint"/>
                    </mxGeometry>
                </mxCell>
                <mxCell id="128" value="&lt;font color=&quot;#000000&quot;&gt;&lt;span style=&quot;font-size: 10px&quot;&gt;消息&lt;br&gt;可靠&lt;/span&gt;&lt;/font&gt;" style="ellipse;whiteSpace=wrap;html=1;aspect=fixed;strokeColor=#000000;strokeWidth=2;fillColor=#FFFFFF;" vertex="1" parent="1">
                    <mxGeometry x="245" y="315" width="40" height="40" as="geometry"/>
                </mxCell>
                <mxCell id="146" style="edgeStyle=orthogonalEdgeStyle;curved=1;rounded=0;orthogonalLoop=1;jettySize=auto;html=1;exitX=0.5;exitY=1;exitDx=0;exitDy=0;entryX=0.544;entryY=0;entryDx=0;entryDy=0;entryPerimeter=0;strokeColor=#000000;" edge="1" parent="1" source="130" target="145">
                    <mxGeometry relative="1" as="geometry"/>
                </mxCell>
                <mxCell id="130" value="&lt;font color=&quot;#000000&quot;&gt;&lt;b&gt;Data Storege&lt;/b&gt;&lt;/font&gt;" style="rounded=0;whiteSpace=wrap;html=1;strokeColor=#000000;strokeWidth=2;fillColor=#FFFFFF;" vertex="1" parent="1">
                    <mxGeometry x="223" y="811" width="430" height="39" as="geometry"/>
                </mxCell>
                <mxCell id="134" style="edgeStyle=orthogonalEdgeStyle;curved=1;rounded=0;orthogonalLoop=1;jettySize=auto;html=1;exitX=0.5;exitY=0;exitDx=0;exitDy=0;entryX=0.995;entryY=0.844;entryDx=0;entryDy=0;entryPerimeter=0;strokeColor=#000000;" edge="1" parent="1" source="132" target="72">
                    <mxGeometry relative="1" as="geometry"/>
                </mxCell>
                <mxCell id="132" value="&lt;font color=&quot;#000000&quot;&gt;反馈&lt;/font&gt;" style="ellipse;whiteSpace=wrap;html=1;aspect=fixed;strokeColor=#000000;strokeWidth=2;fillColor=#FFFFFF;" vertex="1" parent="1">
                    <mxGeometry x="560" y="435" width="30" height="30" as="geometry"/>
                </mxCell>
                <mxCell id="136" style="edgeStyle=orthogonalEdgeStyle;curved=1;rounded=0;orthogonalLoop=1;jettySize=auto;html=1;exitX=1;exitY=0.5;exitDx=0;exitDy=0;entryX=0;entryY=0.5;entryDx=0;entryDy=0;strokeColor=#000000;" edge="1" parent="1" source="135" target="94">
                    <mxGeometry relative="1" as="geometry"/>
                </mxCell>
                <mxCell id="135" value="&lt;font color=&quot;#000000&quot;&gt;&lt;b&gt;Channel Endpoint&lt;/b&gt;&lt;/font&gt;" style="rounded=0;whiteSpace=wrap;html=1;fillColor=#FFFFFF;strokeWidth=2;strokeColor=#000000;" vertex="1" parent="1">
                    <mxGeometry x="-40" y="315" width="90" height="40" as="geometry"/>
                </mxCell>
                <mxCell id="143" style="edgeStyle=orthogonalEdgeStyle;curved=1;rounded=0;orthogonalLoop=1;jettySize=auto;html=1;exitX=0;exitY=0.5;exitDx=0;exitDy=0;strokeColor=#000000;entryX=1;entryY=0.5;entryDx=0;entryDy=0;" edge="1" parent="1" source="138" target="144">
                    <mxGeometry relative="1" as="geometry">
                        <mxPoint x="-150" y="520" as="targetPoint"/>
                    </mxGeometry>
                </mxCell>
                <mxCell id="138" value="&lt;font color=&quot;#000000&quot;&gt;&lt;b&gt;Channel Endpoint&lt;/b&gt;&lt;/font&gt;" style="rounded=0;whiteSpace=wrap;html=1;fillColor=#FFFFFF;strokeWidth=2;strokeColor=#000000;" vertex="1" parent="1">
                    <mxGeometry x="-40" y="500" width="90" height="40" as="geometry"/>
                </mxCell>
                <mxCell id="142" style="edgeStyle=orthogonalEdgeStyle;curved=1;rounded=0;orthogonalLoop=1;jettySize=auto;html=1;exitX=0;exitY=0.5;exitDx=0;exitDy=0;strokeColor=#000000;" edge="1" parent="1" source="140" target="138">
                    <mxGeometry relative="1" as="geometry"/>
                </mxCell>
                <mxCell id="140" value="&lt;font color=&quot;#000000&quot;&gt;条件&lt;br&gt;投递&lt;/font&gt;" style="ellipse;whiteSpace=wrap;html=1;aspect=fixed;strokeColor=#000000;strokeWidth=2;fillColor=#FFFFFF;" vertex="1" parent="1">
                    <mxGeometry x="105" y="497.5" width="45" height="45" as="geometry"/>
                </mxCell>
                <mxCell id="161" style="edgeStyle=orthogonalEdgeStyle;curved=1;rounded=0;orthogonalLoop=1;jettySize=auto;html=1;exitX=0;exitY=0.5;exitDx=0;exitDy=0;entryX=1;entryY=0.5;entryDx=0;entryDy=0;strokeColor=#000000;" edge="1" parent="1" source="144" target="157">
                    <mxGeometry relative="1" as="geometry"/>
                </mxCell>
                <mxCell id="144" value="&lt;font color=&quot;#000000&quot;&gt;&lt;b&gt;Channel&lt;/b&gt;&lt;/font&gt;" style="rounded=1;whiteSpace=wrap;html=1;strokeColor=#000000;strokeWidth=2;fillColor=#FFFFFF;" vertex="1" parent="1">
                    <mxGeometry x="-290" y="490" width="150" height="60" as="geometry"/>
                </mxCell>
                <mxCell id="145" value="" style="rounded=0;whiteSpace=wrap;html=1;strokeColor=#000000;strokeWidth=2;fillColor=#FFFFFF;" vertex="1" parent="1">
                    <mxGeometry x="-90" y="940" width="970" height="80" as="geometry"/>
                </mxCell>
                <mxCell id="147" value="&lt;b&gt;&lt;font color=&quot;#000000&quot;&gt;Query&lt;/font&gt;&lt;/b&gt;" style="text;html=1;align=center;verticalAlign=middle;resizable=0;points=[];autosize=1;strokeColor=none;" vertex="1" parent="1">
                    <mxGeometry x="435" y="880" width="50" height="20" as="geometry"/>
                </mxCell>
                <mxCell id="148" value="&lt;font color=&quot;#000000&quot;&gt;&lt;b&gt;APIs&lt;/b&gt;&lt;/font&gt;" style="rounded=0;whiteSpace=wrap;html=1;strokeColor=#000000;strokeWidth=2;fillColor=#FFFFFF;" vertex="1" parent="1">
                    <mxGeometry x="-90" y="1026" width="970" height="30" as="geometry"/>
                </mxCell>
                <mxCell id="149" value="&lt;b&gt;&lt;font color=&quot;#000000&quot;&gt;实体查询&lt;/font&gt;&lt;/b&gt;" style="rounded=0;whiteSpace=wrap;html=1;strokeColor=#000000;strokeWidth=2;fillColor=#FFFFFF;" vertex="1" parent="1">
                    <mxGeometry x="-10" y="990" width="140" height="30" as="geometry"/>
                </mxCell>
                <mxCell id="150" value="&lt;b&gt;&lt;font color=&quot;#000000&quot;&gt;关系查询&lt;/font&gt;&lt;/b&gt;" style="rounded=0;whiteSpace=wrap;html=1;strokeColor=#000000;strokeWidth=2;fillColor=#FFFFFF;" vertex="1" parent="1">
                    <mxGeometry x="150" y="990" width="140" height="30" as="geometry"/>
                </mxCell>
                <mxCell id="151" value="&lt;b&gt;&lt;font color=&quot;#000000&quot;&gt;属性查询&lt;/font&gt;&lt;/b&gt;" style="rounded=0;whiteSpace=wrap;html=1;strokeColor=#000000;strokeWidth=2;fillColor=#FFFFFF;" vertex="1" parent="1">
                    <mxGeometry x="312" y="990" width="140" height="30" as="geometry"/>
                </mxCell>
                <mxCell id="152" value="&lt;b&gt;&lt;font color=&quot;#000000&quot;&gt;映射脉络查询&lt;/font&gt;&lt;/b&gt;" style="rounded=0;whiteSpace=wrap;html=1;strokeColor=#000000;strokeWidth=2;fillColor=#FFFFFF;" vertex="1" parent="1">
                    <mxGeometry x="474" y="990" width="140" height="30" as="geometry"/>
                </mxCell>
                <mxCell id="153" value="&lt;b&gt;&lt;font color=&quot;#000000&quot;&gt;ES快速查询&lt;/font&gt;&lt;/b&gt;" style="rounded=0;whiteSpace=wrap;html=1;strokeColor=#000000;strokeWidth=2;fillColor=#FFFFFF;" vertex="1" parent="1">
                    <mxGeometry x="640" y="990" width="140" height="30" as="geometry"/>
                </mxCell>
                <mxCell id="154" value="&lt;b style=&quot;color: rgb(0 , 0 , 0)&quot;&gt;Search&lt;/b&gt;" style="text;html=1;align=center;verticalAlign=middle;resizable=0;points=[];autosize=1;strokeColor=none;" vertex="1" parent="1">
                    <mxGeometry x="820" y="940" width="60" height="20" as="geometry"/>
                </mxCell>
                <mxCell id="158" value="" style="group" vertex="1" connectable="0" parent="1">
                    <mxGeometry x="-550" y="385" width="160" height="80" as="geometry"/>
                </mxCell>
                <mxCell id="155" value="" style="rounded=0;whiteSpace=wrap;html=1;strokeColor=#000000;strokeWidth=2;fillColor=#FFFFFF;" vertex="1" parent="158">
                    <mxGeometry width="140" height="60" as="geometry"/>
                </mxCell>
                <mxCell id="156" value="" style="rounded=0;whiteSpace=wrap;html=1;strokeColor=#000000;strokeWidth=2;fillColor=#FFFFFF;" vertex="1" parent="158">
                    <mxGeometry x="10" y="10" width="140" height="60" as="geometry"/>
                </mxCell>
                <mxCell id="157" value="&lt;b&gt;&lt;font color=&quot;#000000&quot; style=&quot;font-size: 14px&quot;&gt;Plugin&lt;/font&gt;&lt;/b&gt;" style="rounded=0;whiteSpace=wrap;html=1;strokeColor=#000000;strokeWidth=2;fillColor=#FFFFFF;" vertex="1" parent="158">
                    <mxGeometry x="20" y="20" width="140" height="60" as="geometry"/>
                </mxCell>
                <mxCell id="162" value="&lt;b style=&quot;color: rgb(0 , 0 , 0)&quot;&gt;Core&lt;/b&gt;" style="text;html=1;align=center;verticalAlign=middle;resizable=0;points=[];autosize=1;strokeColor=none;" vertex="1" parent="1">
                    <mxGeometry x="840" y="30" width="40" height="20" as="geometry"/>
                </mxCell>
            </root>
        </mxGraphModel>
    </diagram>
</mxfile>